<mxfile host="65bd71144e">
    <diagram id="EaJb4szwwCoUCm7kyXtH" name="ページ1">
        <mxGraphModel dx="2515" dy="1436" grid="1" gridSize="10" guides="1" tooltips="1" connect="1" arrows="1" fold="1" page="1" pageScale="1" pageWidth="827" pageHeight="1169" math="0" shadow="0">
            <root>
                <mxCell id="0"/>
                <mxCell id="1" parent="0"/>
                <mxCell id="7" value="" style="group" parent="1" vertex="1" connectable="0">
                    <mxGeometry x="60" y="70" width="540" height="330" as="geometry"/>
                </mxCell>
                <mxCell id="2" value="" style="rounded=0;whiteSpace=wrap;html=1;" parent="7" vertex="1">
                    <mxGeometry width="540" height="330" as="geometry"/>
                </mxCell>
                <mxCell id="4" value="ログイン画面&lt;br&gt;ヘッダー" style="rounded=0;whiteSpace=wrap;html=1;" parent="7" vertex="1">
                    <mxGeometry width="540" height="60" as="geometry"/>
                </mxCell>
                <mxCell id="5" value="フッター" style="rounded=0;whiteSpace=wrap;html=1;" parent="7" vertex="1">
                    <mxGeometry y="270" width="540" height="60" as="geometry"/>
                </mxCell>
                <mxCell id="27" value="Langamer Logo" style="rounded=1;whiteSpace=wrap;html=1;" parent="7" vertex="1">
                    <mxGeometry x="50" y="80" width="200" height="170" as="geometry"/>
                </mxCell>
                <mxCell id="28" value="" style="group" parent="7" vertex="1" connectable="0">
                    <mxGeometry x="300" y="80" width="200" height="170" as="geometry"/>
                </mxCell>
                <mxCell id="3" value="" style="rounded=1;whiteSpace=wrap;html=1;" parent="28" vertex="1">
                    <mxGeometry width="200" height="170" as="geometry"/>
                </mxCell>
                <mxCell id="12" value="メールアドレス" style="rounded=1;whiteSpace=wrap;html=1;" parent="28" vertex="1">
                    <mxGeometry x="40" y="10" width="120" height="20" as="geometry"/>
                </mxCell>
                <mxCell id="23" value="パスワード" style="rounded=1;whiteSpace=wrap;html=1;" parent="28" vertex="1">
                    <mxGeometry x="40" y="40" width="120" height="20" as="geometry"/>
                </mxCell>
                <mxCell id="24" value="ログイン" style="rounded=1;whiteSpace=wrap;html=1;" parent="28" vertex="1">
                    <mxGeometry x="40" y="70" width="120" height="20" as="geometry"/>
                </mxCell>
                <mxCell id="25" value="パスワードを忘れた場合" style="rounded=1;whiteSpace=wrap;html=1;" parent="28" vertex="1">
                    <mxGeometry x="40" y="100" width="140" height="20" as="geometry"/>
                </mxCell>
                <mxCell id="26" value="新規アカウント作成" style="rounded=1;whiteSpace=wrap;html=1;" parent="28" vertex="1">
                    <mxGeometry x="40" y="140" width="120" height="20" as="geometry"/>
                </mxCell>
                <mxCell id="29" value="" style="group" parent="1" vertex="1" connectable="0">
                    <mxGeometry x="60" y="460" width="540" height="330" as="geometry"/>
                </mxCell>
                <mxCell id="30" value="" style="rounded=0;whiteSpace=wrap;html=1;" parent="29" vertex="1">
                    <mxGeometry width="540" height="330" as="geometry"/>
                </mxCell>
                <mxCell id="31" value="パスワード再発行画面&lt;br&gt;ヘッダー" style="rounded=0;whiteSpace=wrap;html=1;" parent="29" vertex="1">
                    <mxGeometry width="540" height="60" as="geometry"/>
                </mxCell>
                <mxCell id="32" value="フッター" style="rounded=0;whiteSpace=wrap;html=1;" parent="29" vertex="1">
                    <mxGeometry y="270" width="540" height="60" as="geometry"/>
                </mxCell>
                <mxCell id="64" value="Langamer Logo" style="rounded=1;whiteSpace=wrap;html=1;" vertex="1" parent="29">
                    <mxGeometry x="60" y="80" width="200" height="170" as="geometry"/>
                </mxCell>
                <mxCell id="65" value="" style="group" vertex="1" connectable="0" parent="29">
                    <mxGeometry x="310" y="80" width="200" height="170" as="geometry"/>
                </mxCell>
                <mxCell id="66" value="" style="rounded=1;whiteSpace=wrap;html=1;" vertex="1" parent="65">
                    <mxGeometry width="200" height="170" as="geometry"/>
                </mxCell>
                <mxCell id="67" value="メールアドレス" style="rounded=1;whiteSpace=wrap;html=1;" vertex="1" parent="65">
                    <mxGeometry x="40" y="25" width="120" height="20" as="geometry"/>
                </mxCell>
                <mxCell id="68" value="生年月日" style="rounded=1;whiteSpace=wrap;html=1;" vertex="1" parent="65">
                    <mxGeometry x="40" y="60" width="120" height="20" as="geometry"/>
                </mxCell>
                <mxCell id="69" value="一時パスワード発行" style="rounded=1;whiteSpace=wrap;html=1;" vertex="1" parent="65">
                    <mxGeometry x="40" y="100" width="120" height="20" as="geometry"/>
                </mxCell>
                <mxCell id="72" value="キャンセル" style="rounded=1;whiteSpace=wrap;html=1;" vertex="1" parent="65">
                    <mxGeometry x="40" y="130" width="120" height="20" as="geometry"/>
                </mxCell>
                <mxCell id="55" value="" style="group" parent="1" vertex="1" connectable="0">
                    <mxGeometry x="1370" y="70" width="540" height="330" as="geometry"/>
                </mxCell>
                <mxCell id="56" value="登録が完了しました。&lt;br&gt;" style="rounded=0;whiteSpace=wrap;html=1;" parent="55" vertex="1">
                    <mxGeometry width="540" height="330" as="geometry"/>
                </mxCell>
                <mxCell id="57" value="新規登録完了画面" style="rounded=0;whiteSpace=wrap;html=1;" parent="55" vertex="1">
                    <mxGeometry width="540" height="60" as="geometry"/>
                </mxCell>
                <mxCell id="58" value="フッター" style="rounded=0;whiteSpace=wrap;html=1;" parent="55" vertex="1">
                    <mxGeometry y="270" width="540" height="60" as="geometry"/>
                </mxCell>
                <mxCell id="59" value="TOPへ戻る" style="rounded=1;whiteSpace=wrap;html=1;" parent="55" vertex="1">
                    <mxGeometry x="194.5" y="180" width="151" height="20" as="geometry"/>
                </mxCell>
                <mxCell id="73" value="" style="group" vertex="1" connectable="0" parent="1">
                    <mxGeometry x="60" y="830" width="540" height="330" as="geometry"/>
                </mxCell>
                <mxCell id="74" value="" style="rounded=0;whiteSpace=wrap;html=1;" vertex="1" parent="73">
                    <mxGeometry width="540" height="330" as="geometry"/>
                </mxCell>
                <mxCell id="75" value="パスワード再発行完了画面&lt;br&gt;ヘッダー" style="rounded=0;whiteSpace=wrap;html=1;" vertex="1" parent="73">
                    <mxGeometry width="540" height="60" as="geometry"/>
                </mxCell>
                <mxCell id="76" value="フッター" style="rounded=0;whiteSpace=wrap;html=1;" vertex="1" parent="73">
                    <mxGeometry y="270" width="540" height="60" as="geometry"/>
                </mxCell>
                <mxCell id="77" value="Langamer Logo" style="rounded=1;whiteSpace=wrap;html=1;" vertex="1" parent="73">
                    <mxGeometry x="50" y="80" width="200" height="170" as="geometry"/>
                </mxCell>
                <mxCell id="78" value="" style="group" vertex="1" connectable="0" parent="73">
                    <mxGeometry x="310" y="80" width="200" height="170" as="geometry"/>
                </mxCell>
                <mxCell id="79" value="" style="rounded=1;whiteSpace=wrap;html=1;" vertex="1" parent="78">
                    <mxGeometry width="200" height="170" as="geometry"/>
                </mxCell>
                <mxCell id="83" value="ログイン画面に戻る" style="rounded=1;whiteSpace=wrap;html=1;" vertex="1" parent="78">
                    <mxGeometry x="40" y="90" width="120" height="20" as="geometry"/>
                </mxCell>
                <mxCell id="84" value="一時パスワードを登録されたメールアドレスに送信しました。" style="text;html=1;strokeColor=none;fillColor=none;align=center;verticalAlign=middle;whiteSpace=wrap;rounded=0;" vertex="1" parent="78">
                    <mxGeometry x="20" y="30" width="170" height="30" as="geometry"/>
                </mxCell>
                <mxCell id="85" value="" style="group" vertex="1" connectable="0" parent="1">
                    <mxGeometry x="60" y="1230" width="540" height="340" as="geometry"/>
                </mxCell>
                <mxCell id="86" value="" style="rounded=0;whiteSpace=wrap;html=1;" vertex="1" parent="85">
                    <mxGeometry width="540" height="330" as="geometry"/>
                </mxCell>
                <mxCell id="87" value="トップページ&lt;br&gt;ヘッダー" style="rounded=0;whiteSpace=wrap;html=1;" vertex="1" parent="85">
                    <mxGeometry width="540" height="60" as="geometry"/>
                </mxCell>
                <mxCell id="88" value="フッター" style="rounded=0;whiteSpace=wrap;html=1;" vertex="1" parent="85">
                    <mxGeometry y="270" width="540" height="60" as="geometry"/>
                </mxCell>
                <mxCell id="89" value="ログアウト" style="rounded=1;whiteSpace=wrap;html=1;" vertex="1" parent="85">
                    <mxGeometry x="460" y="30" width="70" height="20" as="geometry"/>
                </mxCell>
                <mxCell id="90" value="マイページ" style="rounded=1;whiteSpace=wrap;html=1;" vertex="1" parent="85">
                    <mxGeometry x="380" y="30" width="70" height="20" as="geometry"/>
                </mxCell>
                <mxCell id="92" value="自分の投稿フィールド&lt;br&gt;&lt;br&gt;" style="rounded=1;whiteSpace=wrap;html=1;" vertex="1" parent="85">
                    <mxGeometry x="160" y="80" width="360" height="50" as="geometry"/>
                </mxCell>
                <mxCell id="93" value="検索フィルター&lt;br&gt;フィールド" style="rounded=1;whiteSpace=wrap;html=1;" vertex="1" parent="85">
                    <mxGeometry x="20" y="80" width="120" height="180" as="geometry"/>
                </mxCell>
                <mxCell id="94" value="メッセージ" style="rounded=1;whiteSpace=wrap;html=1;" vertex="1" parent="85">
                    <mxGeometry x="300" y="30" width="70" height="20" as="geometry"/>
                </mxCell>
                <mxCell id="99" value="新規募集投稿 / 募集投稿の編集" style="rounded=1;whiteSpace=wrap;html=1;" vertex="1" parent="85">
                    <mxGeometry x="310" y="110" width="190" height="20" as="geometry"/>
                </mxCell>
                <mxCell id="100" value="" style="rounded=1;whiteSpace=wrap;html=1;" vertex="1" parent="85">
                    <mxGeometry x="160" y="140" width="360" height="120" as="geometry"/>
                </mxCell>
                <mxCell id="101" value="" style="rounded=1;whiteSpace=wrap;html=1;" vertex="1" parent="85">
                    <mxGeometry x="170" y="150" width="340" height="30" as="geometry"/>
                </mxCell>
                <mxCell id="91" value="募集詳細" style="rounded=1;whiteSpace=wrap;html=1;" vertex="1" parent="85">
                    <mxGeometry x="420" y="155" width="70" height="20" as="geometry"/>
                </mxCell>
                <mxCell id="102" value="" style="rounded=1;whiteSpace=wrap;html=1;" vertex="1" parent="85">
                    <mxGeometry x="170" y="190" width="340" height="30" as="geometry"/>
                </mxCell>
                <mxCell id="103" value="募集詳細" style="rounded=1;whiteSpace=wrap;html=1;" vertex="1" parent="85">
                    <mxGeometry x="420" y="195" width="70" height="20" as="geometry"/>
                </mxCell>
                <mxCell id="105" value="" style="rounded=1;whiteSpace=wrap;html=1;" vertex="1" parent="85">
                    <mxGeometry x="170" y="230" width="340" height="30" as="geometry"/>
                </mxCell>
                <mxCell id="106" value="募集詳細" style="rounded=1;whiteSpace=wrap;html=1;" vertex="1" parent="85">
                    <mxGeometry x="420" y="235" width="70" height="20" as="geometry"/>
                </mxCell>
                <mxCell id="108" value="" style="group" vertex="1" connectable="0" parent="1">
                    <mxGeometry x="660" y="1230" width="540" height="330" as="geometry"/>
                </mxCell>
                <mxCell id="109" value="" style="rounded=0;whiteSpace=wrap;html=1;" vertex="1" parent="108">
                    <mxGeometry width="540" height="330" as="geometry"/>
                </mxCell>
                <mxCell id="110" value="新規募集投稿画面&lt;br&gt;ヘッダー" style="rounded=0;whiteSpace=wrap;html=1;" vertex="1" parent="108">
                    <mxGeometry width="540" height="60" as="geometry"/>
                </mxCell>
                <mxCell id="111" value="フッター" style="rounded=0;whiteSpace=wrap;html=1;" vertex="1" parent="108">
                    <mxGeometry y="270" width="540" height="60" as="geometry"/>
                </mxCell>
                <mxCell id="112" value="タイトル" style="rounded=1;whiteSpace=wrap;html=1;" vertex="1" parent="108">
                    <mxGeometry x="80" y="80" width="370" height="40" as="geometry"/>
                </mxCell>
                <mxCell id="113" value="募集本文" style="rounded=1;whiteSpace=wrap;html=1;" vertex="1" parent="108">
                    <mxGeometry x="80" y="130" width="370" height="70" as="geometry"/>
                </mxCell>
                <mxCell id="116" value="確認" style="rounded=1;whiteSpace=wrap;html=1;" vertex="1" parent="108">
                    <mxGeometry x="210" y="220" width="110" height="30" as="geometry"/>
                </mxCell>
                <mxCell id="147" value="戻る" style="rounded=1;whiteSpace=wrap;html=1;" vertex="1" parent="108">
                    <mxGeometry x="340" y="220" width="110" height="30" as="geometry"/>
                </mxCell>
                <mxCell id="164" value="ログアウト" style="rounded=1;whiteSpace=wrap;html=1;" vertex="1" parent="108">
                    <mxGeometry x="460" y="30" width="70" height="20" as="geometry"/>
                </mxCell>
                <mxCell id="165" value="マイページ" style="rounded=1;whiteSpace=wrap;html=1;" vertex="1" parent="108">
                    <mxGeometry x="380" y="30" width="70" height="20" as="geometry"/>
                </mxCell>
                <mxCell id="166" value="メッセージ" style="rounded=1;whiteSpace=wrap;html=1;" vertex="1" parent="108">
                    <mxGeometry x="300" y="30" width="70" height="20" as="geometry"/>
                </mxCell>
                <mxCell id="117" value="" style="group" vertex="1" connectable="0" parent="1">
                    <mxGeometry x="1241" y="1230" width="540" height="330" as="geometry"/>
                </mxCell>
                <mxCell id="118" value="" style="rounded=0;whiteSpace=wrap;html=1;" vertex="1" parent="117">
                    <mxGeometry width="540" height="330" as="geometry"/>
                </mxCell>
                <mxCell id="119" value="募集投稿確認画面&lt;br&gt;ヘッダー" style="rounded=0;whiteSpace=wrap;html=1;" vertex="1" parent="117">
                    <mxGeometry width="540" height="60" as="geometry"/>
                </mxCell>
                <mxCell id="120" value="フッター" style="rounded=0;whiteSpace=wrap;html=1;" vertex="1" parent="117">
                    <mxGeometry y="270" width="540" height="60" as="geometry"/>
                </mxCell>
                <mxCell id="121" value="タイトル" style="rounded=1;whiteSpace=wrap;html=1;" vertex="1" parent="117">
                    <mxGeometry x="85" y="70" width="370" height="40" as="geometry"/>
                </mxCell>
                <mxCell id="130" value="募集本文" style="rounded=1;whiteSpace=wrap;html=1;" vertex="1" parent="117">
                    <mxGeometry x="85" y="120" width="370" height="70" as="geometry"/>
                </mxCell>
                <mxCell id="131" value="マイプロフィール情報" style="rounded=1;whiteSpace=wrap;html=1;" vertex="1" parent="117">
                    <mxGeometry x="85" y="200" width="370" height="40" as="geometry"/>
                </mxCell>
                <mxCell id="132" value="投稿" style="rounded=1;whiteSpace=wrap;html=1;" vertex="1" parent="117">
                    <mxGeometry x="219" y="240" width="110" height="30" as="geometry"/>
                </mxCell>
                <mxCell id="146" value="戻る" style="rounded=1;whiteSpace=wrap;html=1;" vertex="1" parent="117">
                    <mxGeometry x="345" y="240" width="110" height="30" as="geometry"/>
                </mxCell>
                <mxCell id="167" value="ログアウト" style="rounded=1;whiteSpace=wrap;html=1;" vertex="1" parent="117">
                    <mxGeometry x="470" y="40" width="70" height="20" as="geometry"/>
                </mxCell>
                <mxCell id="168" value="マイページ" style="rounded=1;whiteSpace=wrap;html=1;" vertex="1" parent="117">
                    <mxGeometry x="390" y="40" width="70" height="20" as="geometry"/>
                </mxCell>
                <mxCell id="169" value="メッセージ" style="rounded=1;whiteSpace=wrap;html=1;" vertex="1" parent="117">
                    <mxGeometry x="310" y="40" width="70" height="20" as="geometry"/>
                </mxCell>
                <mxCell id="133" value="" style="group" vertex="1" connectable="0" parent="1">
                    <mxGeometry x="660" y="1680" width="540" height="330" as="geometry"/>
                </mxCell>
                <mxCell id="134" value="" style="rounded=0;whiteSpace=wrap;html=1;" vertex="1" parent="133">
                    <mxGeometry width="540" height="330" as="geometry"/>
                </mxCell>
                <mxCell id="135" value="フレンド申請画面&lt;br&gt;ヘッダー" style="rounded=0;whiteSpace=wrap;html=1;" vertex="1" parent="133">
                    <mxGeometry width="540" height="60" as="geometry"/>
                </mxCell>
                <mxCell id="136" value="フッター" style="rounded=0;whiteSpace=wrap;html=1;" vertex="1" parent="133">
                    <mxGeometry y="270" width="540" height="60" as="geometry"/>
                </mxCell>
                <mxCell id="148" value="マイプロフィール情報" style="rounded=1;whiteSpace=wrap;html=1;" vertex="1" parent="133">
                    <mxGeometry x="85" y="74" width="370" height="40" as="geometry"/>
                </mxCell>
                <mxCell id="149" value="フレンド申請メッセージ" style="rounded=1;whiteSpace=wrap;html=1;" vertex="1" parent="133">
                    <mxGeometry x="85" y="130" width="370" height="90" as="geometry"/>
                </mxCell>
                <mxCell id="150" value="確認" style="rounded=1;whiteSpace=wrap;html=1;" vertex="1" parent="133">
                    <mxGeometry x="215" y="230" width="110" height="30" as="geometry"/>
                </mxCell>
                <mxCell id="151" value="戻る" style="rounded=1;whiteSpace=wrap;html=1;" vertex="1" parent="133">
                    <mxGeometry x="340" y="230" width="110" height="30" as="geometry"/>
                </mxCell>
                <mxCell id="173" value="ログアウト" style="rounded=1;whiteSpace=wrap;html=1;" vertex="1" parent="133">
                    <mxGeometry x="470" y="40" width="70" height="20" as="geometry"/>
                </mxCell>
                <mxCell id="174" value="マイページ" style="rounded=1;whiteSpace=wrap;html=1;" vertex="1" parent="133">
                    <mxGeometry x="390" y="40" width="70" height="20" as="geometry"/>
                </mxCell>
                <mxCell id="175" value="メッセージ" style="rounded=1;whiteSpace=wrap;html=1;" vertex="1" parent="133">
                    <mxGeometry x="310" y="40" width="70" height="20" as="geometry"/>
                </mxCell>
                <mxCell id="144" value="" style="group" vertex="1" connectable="0" parent="1">
                    <mxGeometry x="60" y="1680" width="540" height="330" as="geometry"/>
                </mxCell>
                <mxCell id="137" value="" style="rounded=0;whiteSpace=wrap;html=1;" vertex="1" parent="144">
                    <mxGeometry width="540" height="330" as="geometry"/>
                </mxCell>
                <mxCell id="138" value="募集詳細画面&lt;br&gt;ヘッダー" style="rounded=0;whiteSpace=wrap;html=1;" vertex="1" parent="144">
                    <mxGeometry width="540" height="60" as="geometry"/>
                </mxCell>
                <mxCell id="139" value="フッター" style="rounded=0;whiteSpace=wrap;html=1;" vertex="1" parent="144">
                    <mxGeometry y="270" width="540" height="60" as="geometry"/>
                </mxCell>
                <mxCell id="140" value="タイトル" style="rounded=1;whiteSpace=wrap;html=1;" vertex="1" parent="144">
                    <mxGeometry x="85" y="70" width="370" height="40" as="geometry"/>
                </mxCell>
                <mxCell id="141" value="募集本文" style="rounded=1;whiteSpace=wrap;html=1;" vertex="1" parent="144">
                    <mxGeometry x="85" y="120" width="370" height="70" as="geometry"/>
                </mxCell>
                <mxCell id="142" value="ユーザープロフィール情報" style="rounded=1;whiteSpace=wrap;html=1;" vertex="1" parent="144">
                    <mxGeometry x="85" y="200" width="370" height="40" as="geometry"/>
                </mxCell>
                <mxCell id="143" value="フレンド申請を送る" style="rounded=1;whiteSpace=wrap;html=1;" vertex="1" parent="144">
                    <mxGeometry x="330" y="240" width="125" height="30" as="geometry"/>
                </mxCell>
                <mxCell id="170" value="ログアウト" style="rounded=1;whiteSpace=wrap;html=1;" vertex="1" parent="144">
                    <mxGeometry x="470" y="40" width="70" height="20" as="geometry"/>
                </mxCell>
                <mxCell id="171" value="マイページ" style="rounded=1;whiteSpace=wrap;html=1;" vertex="1" parent="144">
                    <mxGeometry x="390" y="40" width="70" height="20" as="geometry"/>
                </mxCell>
                <mxCell id="172" value="メッセージ" style="rounded=1;whiteSpace=wrap;html=1;" vertex="1" parent="144">
                    <mxGeometry x="310" y="40" width="70" height="20" as="geometry"/>
                </mxCell>
                <mxCell id="160" value="" style="group" vertex="1" connectable="0" parent="1">
                    <mxGeometry x="60" y="2100" width="540" height="330" as="geometry"/>
                </mxCell>
                <mxCell id="161" value="" style="rounded=0;whiteSpace=wrap;html=1;" vertex="1" parent="160">
                    <mxGeometry width="540" height="330" as="geometry"/>
                </mxCell>
                <mxCell id="162" value="ユーザープロフィール画面&lt;br&gt;ヘッダー" style="rounded=0;whiteSpace=wrap;html=1;" vertex="1" parent="160">
                    <mxGeometry width="540" height="60" as="geometry"/>
                </mxCell>
                <mxCell id="163" value="フッター" style="rounded=0;whiteSpace=wrap;html=1;" vertex="1" parent="160">
                    <mxGeometry y="270" width="540" height="60" as="geometry"/>
                </mxCell>
                <mxCell id="179" value="ログアウト" style="rounded=1;whiteSpace=wrap;html=1;" vertex="1" parent="160">
                    <mxGeometry x="470" y="40" width="70" height="20" as="geometry"/>
                </mxCell>
                <mxCell id="180" value="マイページ" style="rounded=1;whiteSpace=wrap;html=1;" vertex="1" parent="160">
                    <mxGeometry x="390" y="40" width="70" height="20" as="geometry"/>
                </mxCell>
                <mxCell id="181" value="メッセージ" style="rounded=1;whiteSpace=wrap;html=1;" vertex="1" parent="160">
                    <mxGeometry x="310" y="40" width="70" height="20" as="geometry"/>
                </mxCell>
                <mxCell id="186" value="アイコン" style="ellipse;whiteSpace=wrap;html=1;" vertex="1" parent="160">
                    <mxGeometry x="30" y="80" width="60" height="60" as="geometry"/>
                </mxCell>
                <mxCell id="192" value="" style="rounded=1;whiteSpace=wrap;html=1;" vertex="1" parent="160">
                    <mxGeometry x="100" y="70" width="420" height="130" as="geometry"/>
                </mxCell>
                <mxCell id="193" value="フレンド申請 / フレンド削除" style="rounded=1;whiteSpace=wrap;html=1;" vertex="1" parent="160">
                    <mxGeometry x="330" y="210" width="180" height="22" as="geometry"/>
                </mxCell>
                <mxCell id="187" value="アカウント名" style="rounded=1;whiteSpace=wrap;html=1;" vertex="1" parent="160">
                    <mxGeometry x="140" y="80" width="370" height="40" as="geometry"/>
                </mxCell>
                <mxCell id="188" value="学習言語" style="rounded=1;whiteSpace=wrap;html=1;" vertex="1" parent="160">
                    <mxGeometry x="140" y="130" width="120" height="20" as="geometry"/>
                </mxCell>
                <mxCell id="189" value="第一言語 （母国語）" style="rounded=1;whiteSpace=wrap;html=1;" vertex="1" parent="160">
                    <mxGeometry x="270" y="130" width="120" height="20" as="geometry"/>
                </mxCell>
                <mxCell id="194" value="第二言語" style="rounded=1;whiteSpace=wrap;html=1;" vertex="1" parent="160">
                    <mxGeometry x="395" y="130" width="120" height="20" as="geometry"/>
                </mxCell>
                <mxCell id="191" value="*プレイ出来るゲーム" style="rounded=1;whiteSpace=wrap;html=1;" vertex="1" parent="160">
                    <mxGeometry x="170" y="160" width="120" height="20" as="geometry"/>
                </mxCell>
                <mxCell id="190" value="*ゲームプラットフォーム" style="rounded=1;whiteSpace=wrap;html=1;" vertex="1" parent="160">
                    <mxGeometry x="335" y="160" width="140" height="20" as="geometry"/>
                </mxCell>
                <mxCell id="195" value="戻る" style="rounded=1;whiteSpace=wrap;html=1;" vertex="1" parent="160">
                    <mxGeometry x="440" y="238" width="70" height="22" as="geometry"/>
                </mxCell>
                <mxCell id="185" value="" style="group" vertex="1" connectable="0" parent="1">
                    <mxGeometry x="60" y="2536.1000000000004" width="540" height="330" as="geometry"/>
                </mxCell>
                <mxCell id="61" value="" style="rounded=0;whiteSpace=wrap;html=1;" parent="185" vertex="1">
                    <mxGeometry width="540" height="330" as="geometry"/>
                </mxCell>
                <mxCell id="62" value="チャットルーム一覧画面&lt;br&gt;ヘッダー" style="rounded=0;whiteSpace=wrap;html=1;" parent="185" vertex="1">
                    <mxGeometry width="540" height="60" as="geometry"/>
                </mxCell>
                <mxCell id="63" value="フッター" style="rounded=0;whiteSpace=wrap;html=1;" parent="185" vertex="1">
                    <mxGeometry y="270" width="540" height="60" as="geometry"/>
                </mxCell>
                <mxCell id="182" value="ログアウト" style="rounded=1;whiteSpace=wrap;html=1;" vertex="1" parent="185">
                    <mxGeometry x="470" y="40" width="70" height="20" as="geometry"/>
                </mxCell>
                <mxCell id="183" value="マイページ" style="rounded=1;whiteSpace=wrap;html=1;" vertex="1" parent="185">
                    <mxGeometry x="390" y="40" width="70" height="20" as="geometry"/>
                </mxCell>
                <mxCell id="184" value="メッセージ" style="rounded=1;whiteSpace=wrap;html=1;" vertex="1" parent="185">
                    <mxGeometry x="310" y="40" width="70" height="20" as="geometry"/>
                </mxCell>
                <mxCell id="385" value="フレンドとのチャットルーム" style="rounded=1;whiteSpace=wrap;html=1;" vertex="1" parent="185">
                    <mxGeometry x="85" y="78.65999999999985" width="370" height="40" as="geometry"/>
                </mxCell>
                <mxCell id="387" value="フレンドとのチャットルーム" style="rounded=1;whiteSpace=wrap;html=1;" vertex="1" parent="185">
                    <mxGeometry x="85" y="145" width="370" height="40" as="geometry"/>
                </mxCell>
                <mxCell id="388" value="フレンドとのチャットルーム" style="rounded=1;whiteSpace=wrap;html=1;" vertex="1" parent="185">
                    <mxGeometry x="85" y="213.89999999999986" width="370" height="40" as="geometry"/>
                </mxCell>
                <mxCell id="210" value="" style="group" vertex="1" connectable="0" parent="1">
                    <mxGeometry x="660" y="2100" width="540" height="330" as="geometry"/>
                </mxCell>
                <mxCell id="196" value="" style="rounded=0;whiteSpace=wrap;html=1;" vertex="1" parent="210">
                    <mxGeometry width="540" height="330" as="geometry"/>
                </mxCell>
                <mxCell id="197" value="マイページ画面&lt;br&gt;ヘッダー" style="rounded=0;whiteSpace=wrap;html=1;" vertex="1" parent="210">
                    <mxGeometry width="540" height="60" as="geometry"/>
                </mxCell>
                <mxCell id="198" value="フッター" style="rounded=0;whiteSpace=wrap;html=1;" vertex="1" parent="210">
                    <mxGeometry y="270" width="540" height="60" as="geometry"/>
                </mxCell>
                <mxCell id="199" value="ログアウト" style="rounded=1;whiteSpace=wrap;html=1;" vertex="1" parent="210">
                    <mxGeometry x="470" y="40" width="70" height="20" as="geometry"/>
                </mxCell>
                <mxCell id="200" value="マイページ" style="rounded=1;whiteSpace=wrap;html=1;" vertex="1" parent="210">
                    <mxGeometry x="390" y="40" width="70" height="20" as="geometry"/>
                </mxCell>
                <mxCell id="201" value="メッセージ" style="rounded=1;whiteSpace=wrap;html=1;" vertex="1" parent="210">
                    <mxGeometry x="310" y="40" width="70" height="20" as="geometry"/>
                </mxCell>
                <mxCell id="202" value="アイコン" style="ellipse;whiteSpace=wrap;html=1;" vertex="1" parent="210">
                    <mxGeometry x="30" y="80" width="60" height="60" as="geometry"/>
                </mxCell>
                <mxCell id="203" value="" style="rounded=1;whiteSpace=wrap;html=1;" vertex="1" parent="210">
                    <mxGeometry x="100" y="70" width="420" height="120" as="geometry"/>
                </mxCell>
                <mxCell id="204" value="アカウント名" style="rounded=1;whiteSpace=wrap;html=1;" vertex="1" parent="210">
                    <mxGeometry x="140" y="80" width="370" height="40" as="geometry"/>
                </mxCell>
                <mxCell id="205" value="第一言語 （母国語）" style="rounded=1;whiteSpace=wrap;html=1;" vertex="1" parent="210">
                    <mxGeometry x="270" y="130" width="120" height="20" as="geometry"/>
                </mxCell>
                <mxCell id="206" value="第二言語" style="rounded=1;whiteSpace=wrap;html=1;" vertex="1" parent="210">
                    <mxGeometry x="395" y="130" width="120" height="20" as="geometry"/>
                </mxCell>
                <mxCell id="207" value="*プレイ出来るゲーム" style="rounded=1;whiteSpace=wrap;html=1;" vertex="1" parent="210">
                    <mxGeometry x="140" y="160" width="120" height="20" as="geometry"/>
                </mxCell>
                <mxCell id="208" value="*ゲームプラットフォーム" style="rounded=1;whiteSpace=wrap;html=1;" vertex="1" parent="210">
                    <mxGeometry x="275" y="160" width="140" height="20" as="geometry"/>
                </mxCell>
                <mxCell id="209" value="戻る" style="rounded=1;whiteSpace=wrap;html=1;" vertex="1" parent="210">
                    <mxGeometry x="430" y="238" width="70" height="22" as="geometry"/>
                </mxCell>
                <mxCell id="229" value="学習言語" style="rounded=1;whiteSpace=wrap;html=1;" vertex="1" parent="210">
                    <mxGeometry x="140" y="130" width="120" height="20" as="geometry"/>
                </mxCell>
                <mxCell id="230" value="自分の募集投稿&lt;br&gt;" style="rounded=1;whiteSpace=wrap;html=1;" vertex="1" parent="210">
                    <mxGeometry x="100" y="200" width="420" height="30" as="geometry"/>
                </mxCell>
                <mxCell id="232" value="編集" style="rounded=1;whiteSpace=wrap;html=1;" vertex="1" parent="210">
                    <mxGeometry x="430" y="158" width="70" height="22" as="geometry"/>
                </mxCell>
                <mxCell id="228" value="編集" style="rounded=1;whiteSpace=wrap;html=1;" vertex="1" parent="210">
                    <mxGeometry x="430" y="204" width="70" height="22" as="geometry"/>
                </mxCell>
                <mxCell id="257" value="" style="group" vertex="1" connectable="0" parent="1">
                    <mxGeometry x="740" y="70" width="540" height="820" as="geometry"/>
                </mxCell>
                <mxCell id="11" value="フッター" style="rounded=0;whiteSpace=wrap;html=1;" parent="257" vertex="1">
                    <mxGeometry y="760" width="540" height="60" as="geometry"/>
                </mxCell>
                <mxCell id="9" value="" style="rounded=0;whiteSpace=wrap;html=1;" parent="257" vertex="1">
                    <mxGeometry width="540" height="760" as="geometry"/>
                </mxCell>
                <mxCell id="10" value="新規登録画面&lt;br&gt;ヘッダー" style="rounded=0;whiteSpace=wrap;html=1;" parent="257" vertex="1">
                    <mxGeometry width="540" height="60" as="geometry"/>
                </mxCell>
                <mxCell id="33" value="*メールアドレス" style="rounded=1;whiteSpace=wrap;html=1;" parent="257" vertex="1">
                    <mxGeometry x="209" y="80" width="120" height="20" as="geometry"/>
                </mxCell>
                <mxCell id="34" value="*パスワード" style="rounded=1;whiteSpace=wrap;html=1;" parent="257" vertex="1">
                    <mxGeometry x="210" y="110" width="120" height="20" as="geometry"/>
                </mxCell>
                <mxCell id="35" value="*アカウント名" style="rounded=1;whiteSpace=wrap;html=1;" parent="257" vertex="1">
                    <mxGeometry x="210" y="140" width="120" height="20" as="geometry"/>
                </mxCell>
                <mxCell id="36" value="*学習言語" style="rounded=1;whiteSpace=wrap;html=1;" parent="257" vertex="1">
                    <mxGeometry x="209" y="290" width="120" height="20" as="geometry"/>
                </mxCell>
                <mxCell id="37" value="*第一言語 （母国語）" style="rounded=1;whiteSpace=wrap;html=1;" parent="257" vertex="1">
                    <mxGeometry x="209" y="320" width="120" height="20" as="geometry"/>
                </mxCell>
                <mxCell id="38" value="第二言語&amp;nbsp;" style="rounded=1;whiteSpace=wrap;html=1;" parent="257" vertex="1">
                    <mxGeometry x="209" y="350" width="120" height="20" as="geometry"/>
                </mxCell>
                <mxCell id="39" value="出身国" style="rounded=1;whiteSpace=wrap;html=1;" parent="257" vertex="1">
                    <mxGeometry x="210" y="230" width="120" height="20" as="geometry"/>
                </mxCell>
                <mxCell id="40" value="現住国" style="rounded=1;whiteSpace=wrap;html=1;" parent="257" vertex="1">
                    <mxGeometry x="210" y="260" width="120" height="20" as="geometry"/>
                </mxCell>
                <mxCell id="41" value="*生年月日" style="rounded=1;whiteSpace=wrap;html=1;" parent="257" vertex="1">
                    <mxGeometry x="210" y="170" width="120" height="20" as="geometry"/>
                </mxCell>
                <mxCell id="42" value="性別" style="rounded=1;whiteSpace=wrap;html=1;" parent="257" vertex="1">
                    <mxGeometry x="210" y="200" width="120" height="20" as="geometry"/>
                </mxCell>
                <mxCell id="43" value="*プレイ出来るゲーム" style="rounded=1;whiteSpace=wrap;html=1;" parent="257" vertex="1">
                    <mxGeometry x="210" y="410" width="120" height="20" as="geometry"/>
                </mxCell>
                <mxCell id="44" value="*ゲームプラットフォーム" style="rounded=1;whiteSpace=wrap;html=1;" parent="257" vertex="1">
                    <mxGeometry x="199" y="380" width="140" height="20" as="geometry"/>
                </mxCell>
                <mxCell id="45" value="PSN ID" style="rounded=1;whiteSpace=wrap;html=1;" parent="257" vertex="1">
                    <mxGeometry x="230" y="470" width="80" height="20" as="geometry"/>
                </mxCell>
                <mxCell id="46" value="Xbox ID" style="rounded=1;whiteSpace=wrap;html=1;" parent="257" vertex="1">
                    <mxGeometry x="230" y="500" width="80" height="20" as="geometry"/>
                </mxCell>
                <mxCell id="47" value="Discord ID" style="rounded=1;whiteSpace=wrap;html=1;" parent="257" vertex="1">
                    <mxGeometry x="230" y="440" width="80" height="20" as="geometry"/>
                </mxCell>
                <mxCell id="48" value="任天堂 ID" style="rounded=1;whiteSpace=wrap;html=1;" parent="257" vertex="1">
                    <mxGeometry x="230" y="530" width="80" height="20" as="geometry"/>
                </mxCell>
                <mxCell id="49" value="Steam ID" style="rounded=1;whiteSpace=wrap;html=1;" parent="257" vertex="1">
                    <mxGeometry x="230" y="560" width="80" height="20" as="geometry"/>
                </mxCell>
                <mxCell id="50" value="Riot ID" style="rounded=1;whiteSpace=wrap;html=1;" parent="257" vertex="1">
                    <mxGeometry x="229" y="620" width="80" height="20" as="geometry"/>
                </mxCell>
                <mxCell id="51" value="Other ID" style="rounded=1;whiteSpace=wrap;html=1;" parent="257" vertex="1">
                    <mxGeometry x="229" y="650" width="80" height="20" as="geometry"/>
                </mxCell>
                <mxCell id="52" value="Origin ID" style="rounded=1;whiteSpace=wrap;html=1;" parent="257" vertex="1">
                    <mxGeometry x="230" y="590" width="80" height="20" as="geometry"/>
                </mxCell>
                <mxCell id="53" value="Twitter ID" style="rounded=1;whiteSpace=wrap;html=1;" parent="257" vertex="1">
                    <mxGeometry x="230" y="680" width="80" height="20" as="geometry"/>
                </mxCell>
                <mxCell id="54" value="登録" style="rounded=1;whiteSpace=wrap;html=1;" parent="257" vertex="1">
                    <mxGeometry x="199" y="710" width="151" height="20" as="geometry"/>
                </mxCell>
                <mxCell id="261" value="マイページ編集画面&lt;br&gt;ヘッダー" style="rounded=0;whiteSpace=wrap;html=1;" vertex="1" parent="1">
                    <mxGeometry x="1270" y="2100" width="540" height="60" as="geometry"/>
                </mxCell>
                <mxCell id="367" value="マイページ編集確認画面&lt;br&gt;ヘッダー" style="rounded=0;whiteSpace=wrap;html=1;" vertex="1" parent="1">
                    <mxGeometry x="1890" y="2170" width="540" height="60" as="geometry"/>
                </mxCell>
                <mxCell id="153" value="" style="rounded=0;whiteSpace=wrap;html=1;" vertex="1" parent="1">
                    <mxGeometry x="1230" y="1610" width="540" height="330" as="geometry"/>
                </mxCell>
                <mxCell id="154" value="フレンド申請確認画面&lt;br&gt;ヘッダー" style="rounded=0;whiteSpace=wrap;html=1;" vertex="1" parent="1">
                    <mxGeometry x="1230" y="1610" width="540" height="60" as="geometry"/>
                </mxCell>
                <mxCell id="155" value="フッター" style="rounded=0;whiteSpace=wrap;html=1;" vertex="1" parent="1">
                    <mxGeometry x="1230" y="1880" width="540" height="60" as="geometry"/>
                </mxCell>
                <mxCell id="156" value="マイプロフィール情報" style="rounded=1;whiteSpace=wrap;html=1;" vertex="1" parent="1">
                    <mxGeometry x="1329" y="1684" width="370" height="40" as="geometry"/>
                </mxCell>
                <mxCell id="157" value="フレンド申請メッセージ" style="rounded=1;whiteSpace=wrap;html=1;" vertex="1" parent="1">
                    <mxGeometry x="1329" y="1740" width="370" height="90" as="geometry"/>
                </mxCell>
                <mxCell id="158" value="送信" style="rounded=1;whiteSpace=wrap;html=1;" vertex="1" parent="1">
                    <mxGeometry x="1459" y="1840" width="110" height="30" as="geometry"/>
                </mxCell>
                <mxCell id="159" value="戻る" style="rounded=1;whiteSpace=wrap;html=1;" vertex="1" parent="1">
                    <mxGeometry x="1584" y="1840" width="110" height="30" as="geometry"/>
                </mxCell>
                <mxCell id="176" value="ログアウト" style="rounded=1;whiteSpace=wrap;html=1;" vertex="1" parent="1">
                    <mxGeometry x="1700" y="1650" width="70" height="20" as="geometry"/>
                </mxCell>
                <mxCell id="177" value="マイページ" style="rounded=1;whiteSpace=wrap;html=1;" vertex="1" parent="1">
                    <mxGeometry x="1620" y="1650" width="70" height="20" as="geometry"/>
                </mxCell>
                <mxCell id="178" value="メッセージ" style="rounded=1;whiteSpace=wrap;html=1;" vertex="1" parent="1">
                    <mxGeometry x="1540" y="1650" width="70" height="20" as="geometry"/>
                </mxCell>
                <mxCell id="258" value="" style="group" vertex="1" connectable="0" parent="1">
                    <mxGeometry x="1270" y="2160" width="540" height="870" as="geometry"/>
                </mxCell>
                <mxCell id="259" value="フッター" style="rounded=0;whiteSpace=wrap;html=1;" vertex="1" parent="258">
                    <mxGeometry y="806.3414634146342" width="540" height="63.65853658536586" as="geometry"/>
                </mxCell>
                <mxCell id="260" value="" style="rounded=0;whiteSpace=wrap;html=1;" vertex="1" parent="258">
                    <mxGeometry width="540" height="806.3414634146342" as="geometry"/>
                </mxCell>
                <mxCell id="262" value="*メールアドレス" style="rounded=1;whiteSpace=wrap;html=1;" vertex="1" parent="258">
                    <mxGeometry x="209" y="84.8780487804878" width="120" height="21.21951219512195" as="geometry"/>
                </mxCell>
                <mxCell id="263" value="*パスワード" style="rounded=1;whiteSpace=wrap;html=1;" vertex="1" parent="258">
                    <mxGeometry x="210" y="116.70731707317074" width="120" height="21.21951219512195" as="geometry"/>
                </mxCell>
                <mxCell id="264" value="*アカウント名" style="rounded=1;whiteSpace=wrap;html=1;" vertex="1" parent="258">
                    <mxGeometry x="210" y="148.53658536585365" width="120" height="21.21951219512195" as="geometry"/>
                </mxCell>
                <mxCell id="265" value="*学習言語" style="rounded=1;whiteSpace=wrap;html=1;" vertex="1" parent="258">
                    <mxGeometry x="209" y="307.6829268292683" width="120" height="21.21951219512195" as="geometry"/>
                </mxCell>
                <mxCell id="266" value="*第一言語 （母国語）" style="rounded=1;whiteSpace=wrap;html=1;" vertex="1" parent="258">
                    <mxGeometry x="209" y="339.5121951219512" width="120" height="21.21951219512195" as="geometry"/>
                </mxCell>
                <mxCell id="267" value="第二言語&amp;nbsp;" style="rounded=1;whiteSpace=wrap;html=1;" vertex="1" parent="258">
                    <mxGeometry x="209" y="371.3414634146342" width="120" height="21.21951219512195" as="geometry"/>
                </mxCell>
                <mxCell id="268" value="出身国" style="rounded=1;whiteSpace=wrap;html=1;" vertex="1" parent="258">
                    <mxGeometry x="210" y="244.02439024390245" width="120" height="21.21951219512195" as="geometry"/>
                </mxCell>
                <mxCell id="269" value="現住国" style="rounded=1;whiteSpace=wrap;html=1;" vertex="1" parent="258">
                    <mxGeometry x="210" y="275.8536585365854" width="120" height="21.21951219512195" as="geometry"/>
                </mxCell>
                <mxCell id="270" value="*生年月日" style="rounded=1;whiteSpace=wrap;html=1;" vertex="1" parent="258">
                    <mxGeometry x="210" y="180.3658536585366" width="120" height="21.21951219512195" as="geometry"/>
                </mxCell>
                <mxCell id="271" value="性別" style="rounded=1;whiteSpace=wrap;html=1;" vertex="1" parent="258">
                    <mxGeometry x="210" y="212.19512195121953" width="120" height="21.21951219512195" as="geometry"/>
                </mxCell>
                <mxCell id="272" value="*プレイ出来るゲーム" style="rounded=1;whiteSpace=wrap;html=1;" vertex="1" parent="258">
                    <mxGeometry x="210" y="435" width="120" height="21.21951219512195" as="geometry"/>
                </mxCell>
                <mxCell id="273" value="*ゲームプラットフォーム" style="rounded=1;whiteSpace=wrap;html=1;" vertex="1" parent="258">
                    <mxGeometry x="199" y="403.1707317073171" width="140" height="21.21951219512195" as="geometry"/>
                </mxCell>
                <mxCell id="274" value="PSN ID" style="rounded=1;whiteSpace=wrap;html=1;" vertex="1" parent="258">
                    <mxGeometry x="230" y="498.6585365853659" width="80" height="21.21951219512195" as="geometry"/>
                </mxCell>
                <mxCell id="275" value="Xbox ID" style="rounded=1;whiteSpace=wrap;html=1;" vertex="1" parent="258">
                    <mxGeometry x="230" y="530.4878048780488" width="80" height="21.21951219512195" as="geometry"/>
                </mxCell>
                <mxCell id="276" value="Discord ID" style="rounded=1;whiteSpace=wrap;html=1;" vertex="1" parent="258">
                    <mxGeometry x="230" y="466.82926829268297" width="80" height="21.21951219512195" as="geometry"/>
                </mxCell>
                <mxCell id="277" value="任天堂 ID" style="rounded=1;whiteSpace=wrap;html=1;" vertex="1" parent="258">
                    <mxGeometry x="230" y="562.3170731707318" width="80" height="21.21951219512195" as="geometry"/>
                </mxCell>
                <mxCell id="278" value="Steam ID" style="rounded=1;whiteSpace=wrap;html=1;" vertex="1" parent="258">
                    <mxGeometry x="230" y="594.1463414634146" width="80" height="21.21951219512195" as="geometry"/>
                </mxCell>
                <mxCell id="279" value="Riot ID" style="rounded=1;whiteSpace=wrap;html=1;" vertex="1" parent="258">
                    <mxGeometry x="229" y="657.8048780487806" width="80" height="21.21951219512195" as="geometry"/>
                </mxCell>
                <mxCell id="280" value="Other ID" style="rounded=1;whiteSpace=wrap;html=1;" vertex="1" parent="258">
                    <mxGeometry x="229" y="689.6341463414634" width="80" height="21.21951219512195" as="geometry"/>
                </mxCell>
                <mxCell id="281" value="Origin ID" style="rounded=1;whiteSpace=wrap;html=1;" vertex="1" parent="258">
                    <mxGeometry x="230" y="625.9756097560976" width="80" height="21.21951219512195" as="geometry"/>
                </mxCell>
                <mxCell id="282" value="Twitter ID" style="rounded=1;whiteSpace=wrap;html=1;" vertex="1" parent="258">
                    <mxGeometry x="230" y="721.4634146341464" width="80" height="21.21951219512195" as="geometry"/>
                </mxCell>
                <mxCell id="283" value="確認" style="rounded=1;whiteSpace=wrap;html=1;" vertex="1" parent="258">
                    <mxGeometry x="199" y="753.2926829268293" width="151" height="21.21951219512195" as="geometry"/>
                </mxCell>
                <mxCell id="285" value="アイコン" style="ellipse;whiteSpace=wrap;html=1;" vertex="1" parent="258">
                    <mxGeometry x="60" y="10.61" width="60" height="60" as="geometry"/>
                </mxCell>
                <mxCell id="286" value="アイコンの編集" style="rounded=1;whiteSpace=wrap;html=1;" vertex="1" parent="258">
                    <mxGeometry x="209" y="29.998048780487807" width="120" height="21.21951219512195" as="geometry"/>
                </mxCell>
                <mxCell id="287" value="戻る" style="rounded=1;whiteSpace=wrap;html=1;" vertex="1" parent="258">
                    <mxGeometry x="290" y="780" width="60" height="21.22" as="geometry"/>
                </mxCell>
                <mxCell id="340" value="フッター" style="rounded=0;whiteSpace=wrap;html=1;" vertex="1" parent="1">
                    <mxGeometry x="1890" y="2966.3414634146343" width="540" height="63.65853658536586" as="geometry"/>
                </mxCell>
                <mxCell id="341" value="" style="rounded=0;whiteSpace=wrap;html=1;" vertex="1" parent="1">
                    <mxGeometry x="1890" y="2230" width="540" height="736.34" as="geometry"/>
                </mxCell>
                <mxCell id="342" value="*メールアドレス" style="rounded=1;whiteSpace=wrap;html=1;" vertex="1" parent="1">
                    <mxGeometry x="2099" y="2244.878048780488" width="120" height="21.21951219512195" as="geometry"/>
                </mxCell>
                <mxCell id="343" value="*パスワード" style="rounded=1;whiteSpace=wrap;html=1;" vertex="1" parent="1">
                    <mxGeometry x="2100" y="2276.7073170731705" width="120" height="21.21951219512195" as="geometry"/>
                </mxCell>
                <mxCell id="344" value="*アカウント名" style="rounded=1;whiteSpace=wrap;html=1;" vertex="1" parent="1">
                    <mxGeometry x="2100" y="2308.5365853658536" width="120" height="21.21951219512195" as="geometry"/>
                </mxCell>
                <mxCell id="345" value="*学習言語" style="rounded=1;whiteSpace=wrap;html=1;" vertex="1" parent="1">
                    <mxGeometry x="2099" y="2467.682926829268" width="120" height="21.21951219512195" as="geometry"/>
                </mxCell>
                <mxCell id="346" value="*第一言語 （母国語）" style="rounded=1;whiteSpace=wrap;html=1;" vertex="1" parent="1">
                    <mxGeometry x="2099" y="2499.512195121951" width="120" height="21.21951219512195" as="geometry"/>
                </mxCell>
                <mxCell id="347" value="第二言語&amp;nbsp;" style="rounded=1;whiteSpace=wrap;html=1;" vertex="1" parent="1">
                    <mxGeometry x="2099" y="2531.3414634146343" width="120" height="21.21951219512195" as="geometry"/>
                </mxCell>
                <mxCell id="348" value="出身国" style="rounded=1;whiteSpace=wrap;html=1;" vertex="1" parent="1">
                    <mxGeometry x="2100" y="2404.0243902439024" width="120" height="21.21951219512195" as="geometry"/>
                </mxCell>
                <mxCell id="349" value="現住国" style="rounded=1;whiteSpace=wrap;html=1;" vertex="1" parent="1">
                    <mxGeometry x="2100" y="2435.8536585365855" width="120" height="21.21951219512195" as="geometry"/>
                </mxCell>
                <mxCell id="350" value="*生年月日" style="rounded=1;whiteSpace=wrap;html=1;" vertex="1" parent="1">
                    <mxGeometry x="2100" y="2340.3658536585367" width="120" height="21.21951219512195" as="geometry"/>
                </mxCell>
                <mxCell id="351" value="性別" style="rounded=1;whiteSpace=wrap;html=1;" vertex="1" parent="1">
                    <mxGeometry x="2100" y="2372.1951219512193" width="120" height="21.21951219512195" as="geometry"/>
                </mxCell>
                <mxCell id="352" value="*プレイ出来るゲーム" style="rounded=1;whiteSpace=wrap;html=1;" vertex="1" parent="1">
                    <mxGeometry x="2100" y="2595" width="120" height="21.21951219512195" as="geometry"/>
                </mxCell>
                <mxCell id="353" value="*ゲームプラットフォーム" style="rounded=1;whiteSpace=wrap;html=1;" vertex="1" parent="1">
                    <mxGeometry x="2089" y="2563.170731707317" width="140" height="21.21951219512195" as="geometry"/>
                </mxCell>
                <mxCell id="354" value="PSN ID" style="rounded=1;whiteSpace=wrap;html=1;" vertex="1" parent="1">
                    <mxGeometry x="2120" y="2658.6585365853657" width="80" height="21.21951219512195" as="geometry"/>
                </mxCell>
                <mxCell id="355" value="Xbox ID" style="rounded=1;whiteSpace=wrap;html=1;" vertex="1" parent="1">
                    <mxGeometry x="2120" y="2690.487804878049" width="80" height="21.21951219512195" as="geometry"/>
                </mxCell>
                <mxCell id="356" value="Discord ID" style="rounded=1;whiteSpace=wrap;html=1;" vertex="1" parent="1">
                    <mxGeometry x="2120" y="2626.829268292683" width="80" height="21.21951219512195" as="geometry"/>
                </mxCell>
                <mxCell id="357" value="任天堂 ID" style="rounded=1;whiteSpace=wrap;html=1;" vertex="1" parent="1">
                    <mxGeometry x="2120" y="2722.317073170732" width="80" height="21.21951219512195" as="geometry"/>
                </mxCell>
                <mxCell id="358" value="Steam ID" style="rounded=1;whiteSpace=wrap;html=1;" vertex="1" parent="1">
                    <mxGeometry x="2120" y="2754.1463414634145" width="80" height="21.21951219512195" as="geometry"/>
                </mxCell>
                <mxCell id="359" value="Riot ID" style="rounded=1;whiteSpace=wrap;html=1;" vertex="1" parent="1">
                    <mxGeometry x="2119" y="2817.8048780487807" width="80" height="21.21951219512195" as="geometry"/>
                </mxCell>
                <mxCell id="360" value="Other ID" style="rounded=1;whiteSpace=wrap;html=1;" vertex="1" parent="1">
                    <mxGeometry x="2119" y="2849.6341463414633" width="80" height="21.21951219512195" as="geometry"/>
                </mxCell>
                <mxCell id="361" value="Origin ID" style="rounded=1;whiteSpace=wrap;html=1;" vertex="1" parent="1">
                    <mxGeometry x="2120" y="2785.9756097560976" width="80" height="21.21951219512195" as="geometry"/>
                </mxCell>
                <mxCell id="362" value="Twitter ID" style="rounded=1;whiteSpace=wrap;html=1;" vertex="1" parent="1">
                    <mxGeometry x="2120" y="2881.4634146341464" width="80" height="21.21951219512195" as="geometry"/>
                </mxCell>
                <mxCell id="363" value="保存" style="rounded=1;whiteSpace=wrap;html=1;" vertex="1" parent="1">
                    <mxGeometry x="2089" y="2913.2926829268295" width="151" height="21.21951219512195" as="geometry"/>
                </mxCell>
                <mxCell id="364" value="アイコン" style="ellipse;whiteSpace=wrap;html=1;" vertex="1" parent="1">
                    <mxGeometry x="1960" y="2244.88" width="60" height="60" as="geometry"/>
                </mxCell>
                <mxCell id="366" value="戻る" style="rounded=1;whiteSpace=wrap;html=1;" vertex="1" parent="1">
                    <mxGeometry x="2180" y="2940" width="60" height="21.22" as="geometry"/>
                </mxCell>
                <mxCell id="368" value="" style="rounded=0;whiteSpace=wrap;html=1;" vertex="1" parent="1">
                    <mxGeometry x="1830" y="1230" width="540" height="330" as="geometry"/>
                </mxCell>
                <mxCell id="369" value="募集投稿の編集画面&lt;br&gt;ヘッダー" style="rounded=0;whiteSpace=wrap;html=1;" vertex="1" parent="1">
                    <mxGeometry x="1830" y="1230" width="540" height="60" as="geometry"/>
                </mxCell>
                <mxCell id="370" value="フッター" style="rounded=0;whiteSpace=wrap;html=1;" vertex="1" parent="1">
                    <mxGeometry x="1830" y="1500" width="540" height="60" as="geometry"/>
                </mxCell>
                <mxCell id="371" value="タイトル" style="rounded=1;whiteSpace=wrap;html=1;" vertex="1" parent="1">
                    <mxGeometry x="1910" y="1310" width="370" height="40" as="geometry"/>
                </mxCell>
                <mxCell id="372" value="募集本文" style="rounded=1;whiteSpace=wrap;html=1;" vertex="1" parent="1">
                    <mxGeometry x="1910" y="1360" width="370" height="70" as="geometry"/>
                </mxCell>
                <mxCell id="373" value="確認" style="rounded=1;whiteSpace=wrap;html=1;" vertex="1" parent="1">
                    <mxGeometry x="2040" y="1450" width="110" height="30" as="geometry"/>
                </mxCell>
                <mxCell id="374" value="戻る" style="rounded=1;whiteSpace=wrap;html=1;" vertex="1" parent="1">
                    <mxGeometry x="2170" y="1450" width="110" height="30" as="geometry"/>
                </mxCell>
                <mxCell id="375" value="ログアウト" style="rounded=1;whiteSpace=wrap;html=1;" vertex="1" parent="1">
                    <mxGeometry x="2290" y="1260" width="70" height="20" as="geometry"/>
                </mxCell>
                <mxCell id="376" value="マイページ" style="rounded=1;whiteSpace=wrap;html=1;" vertex="1" parent="1">
                    <mxGeometry x="2210" y="1260" width="70" height="20" as="geometry"/>
                </mxCell>
                <mxCell id="377" value="メッセージ" style="rounded=1;whiteSpace=wrap;html=1;" vertex="1" parent="1">
                    <mxGeometry x="2130" y="1260" width="70" height="20" as="geometry"/>
                </mxCell>
                <mxCell id="378" value="" style="group" vertex="1" connectable="0" parent="1">
                    <mxGeometry x="650" y="2531.34" width="550" height="330" as="geometry"/>
                </mxCell>
                <mxCell id="379" value="" style="rounded=0;whiteSpace=wrap;html=1;" vertex="1" parent="378">
                    <mxGeometry width="540" height="330" as="geometry"/>
                </mxCell>
                <mxCell id="380" value="メッセージ画面&lt;br&gt;ヘッダー" style="rounded=0;whiteSpace=wrap;html=1;" vertex="1" parent="378">
                    <mxGeometry width="540" height="60" as="geometry"/>
                </mxCell>
                <mxCell id="381" value="フッター" style="rounded=0;whiteSpace=wrap;html=1;" vertex="1" parent="378">
                    <mxGeometry y="270" width="540" height="60" as="geometry"/>
                </mxCell>
                <mxCell id="382" value="ログアウト" style="rounded=1;whiteSpace=wrap;html=1;" vertex="1" parent="378">
                    <mxGeometry x="470" y="40" width="70" height="20" as="geometry"/>
                </mxCell>
                <mxCell id="383" value="マイページ" style="rounded=1;whiteSpace=wrap;html=1;" vertex="1" parent="378">
                    <mxGeometry x="390" y="40" width="70" height="20" as="geometry"/>
                </mxCell>
                <mxCell id="384" value="メッセージ" style="rounded=1;whiteSpace=wrap;html=1;" vertex="1" parent="378">
                    <mxGeometry x="310" y="40" width="70" height="20" as="geometry"/>
                </mxCell>
                <mxCell id="389" value="相手のメッセージログ" style="rounded=1;whiteSpace=wrap;html=1;" vertex="1" parent="378">
                    <mxGeometry x="40" y="97.32" width="220" height="40" as="geometry"/>
                </mxCell>
                <mxCell id="390" value="相手の名前" style="rounded=1;whiteSpace=wrap;html=1;" vertex="1" parent="378">
                    <mxGeometry x="40" y="78.66" width="140" height="18.66" as="geometry"/>
                </mxCell>
                <mxCell id="391" value="投稿時間" style="rounded=1;whiteSpace=wrap;html=1;" vertex="1" parent="378">
                    <mxGeometry x="180" y="78.66" width="80" height="18.66" as="geometry"/>
                </mxCell>
                <mxCell id="392" value="メッセージ入力欄" style="rounded=1;whiteSpace=wrap;html=1;" vertex="1" parent="378">
                    <mxGeometry x="30" y="218.66" width="420" height="40" as="geometry"/>
                </mxCell>
                <mxCell id="395" value="自分のメッセージログ" style="rounded=1;whiteSpace=wrap;html=1;" vertex="1" parent="378">
                    <mxGeometry x="280" y="154.33000000000038" width="220" height="40" as="geometry"/>
                </mxCell>
                <mxCell id="396" value="自分の名前" style="rounded=1;whiteSpace=wrap;html=1;" vertex="1" parent="378">
                    <mxGeometry x="280" y="135.67000000000007" width="140" height="18.66" as="geometry"/>
                </mxCell>
                <mxCell id="397" value="投稿時間" style="rounded=1;whiteSpace=wrap;html=1;" vertex="1" parent="378">
                    <mxGeometry x="420" y="135.67000000000007" width="80" height="18.66" as="geometry"/>
                </mxCell>
                <mxCell id="398" value="送信" style="rounded=1;whiteSpace=wrap;html=1;" vertex="1" parent="378">
                    <mxGeometry x="470" y="228.65999999999985" width="60" height="30" as="geometry"/>
                </mxCell>
                <mxCell id="400" value="削除" style="rounded=1;whiteSpace=wrap;html=1;" vertex="1" parent="378">
                    <mxGeometry x="505" y="178.66000000000003" width="30" height="15.67" as="geometry"/>
                </mxCell>
                <mxCell id="399" value="編集" style="rounded=1;whiteSpace=wrap;html=1;" vertex="1" parent="378">
                    <mxGeometry x="505" y="154.32999999999993" width="30" height="20" as="geometry"/>
                </mxCell>
            </root>
        </mxGraphModel>
    </diagram>
</mxfile>
